<svg width="116" height="89" viewBox="0 0 116 89" fill="none"
  xmlns="http://www.w3.org/2000/svg">
  <path d="M39.2261 88.5234L45.0417 79.6694C23.3405 68.0484 23.7178 49.4009 23.7178 45.3857C25.7344 45.6431 27.8551 45.6945 29.9628 45.5015C35.6638 45.026 40.9786 42.4578 44.8621 38.3021C48.7456 34.1463 50.9167 28.7037 50.9484 23.0446C50.9484 17.0716 48.5496 11.3433 44.2798 7.11975C40.01 2.89621 34.2188 0.523443 28.1804 0.523442C21.1938 0.523441 14.5195 3.67642 10.3042 8.1163C3.60387 15.1429 1.14487e-05 23.0446 9.2098e-06 35.8495C5.27206e-06 58.3708 15.9767 78.5498 39.2261 88.5234ZM104.278 88.5235L110.093 79.6694C88.3921 68.0485 88.7694 49.4009 88.7694 45.3857C90.786 45.6431 92.9067 45.6946 95.0144 45.5015C100.715 45.026 106.03 42.4578 109.914 38.3021C113.797 34.1463 115.968 28.7038 116 23.0447C116 17.0717 113.601 11.3433 109.331 7.11976C105.062 2.89622 99.2704 0.523455 93.232 0.523454C86.2454 0.523453 79.5711 3.67643 75.3558 8.11632C68.6555 15.1429 65.0516 23.0446 65.0516 35.8496C65.0516 58.3708 81.0283 78.5498 104.278 88.5235Z" fill="black" fill-opacity="0.04"/>
</svg>
